<mxfile host="app.diagrams.net" agent="Mozilla/5.0 (Windows NT 10.0; Win64; x64) AppleWebKit/537.36 (KHTML, like Gecko) Chrome/133.0.0.0 Safari/537.36" version="26.0.13">
  <diagram name="第 1 页" id="Lenm2lYszdIYtJIorlEV">
    <mxGraphModel dx="1434" dy="746" grid="1" gridSize="10" guides="1" tooltips="1" connect="1" arrows="1" fold="1" page="1" pageScale="1" pageWidth="827" pageHeight="1169" math="0" shadow="0">
      <root>
        <mxCell id="0" />
        <mxCell id="1" parent="0" />
        <mxCell id="SrCjx3DrhkShmruOlfa0-1" value="" style="rounded=0;whiteSpace=wrap;html=1;fillColor=#fff2cc;strokeColor=#d6b656;" vertex="1" parent="1">
          <mxGeometry x="190" y="100" width="500" height="370" as="geometry" />
        </mxCell>
        <mxCell id="SrCjx3DrhkShmruOlfa0-2" value="main-memory&amp;nbsp; 主存" style="rounded=0;whiteSpace=wrap;html=1;fillColor=#ffe6cc;strokeColor=#d79b00;" vertex="1" parent="1">
          <mxGeometry x="190" y="530" width="500" height="60" as="geometry" />
        </mxCell>
        <mxCell id="SrCjx3DrhkShmruOlfa0-3" value="" style="rounded=0;whiteSpace=wrap;html=1;fillColor=#dae8fc;strokeColor=#6c8ebf;" vertex="1" parent="1">
          <mxGeometry x="220" y="120" width="210" height="250" as="geometry" />
        </mxCell>
        <mxCell id="SrCjx3DrhkShmruOlfa0-4" value="" style="rounded=0;whiteSpace=wrap;html=1;fillColor=#dae8fc;strokeColor=#6c8ebf;" vertex="1" parent="1">
          <mxGeometry x="460" y="120" width="210" height="250" as="geometry" />
        </mxCell>
        <mxCell id="SrCjx3DrhkShmruOlfa0-5" value="CU" style="rounded=0;whiteSpace=wrap;html=1;fillColor=#f8cecc;strokeColor=#b85450;" vertex="1" parent="1">
          <mxGeometry x="240" y="150" width="80" height="60" as="geometry" />
        </mxCell>
        <mxCell id="SrCjx3DrhkShmruOlfa0-6" value="ALU" style="rounded=0;whiteSpace=wrap;html=1;fillColor=#f8cecc;strokeColor=#b85450;" vertex="1" parent="1">
          <mxGeometry x="334" y="150" width="80" height="60" as="geometry" />
        </mxCell>
        <mxCell id="SrCjx3DrhkShmruOlfa0-7" value="CU" style="rounded=0;whiteSpace=wrap;html=1;fillColor=#f8cecc;strokeColor=#b85450;" vertex="1" parent="1">
          <mxGeometry x="480" y="150" width="80" height="60" as="geometry" />
        </mxCell>
        <mxCell id="SrCjx3DrhkShmruOlfa0-8" value="ALU" style="rounded=0;whiteSpace=wrap;html=1;fillColor=#f8cecc;strokeColor=#b85450;" vertex="1" parent="1">
          <mxGeometry x="580" y="150" width="80" height="60" as="geometry" />
        </mxCell>
        <mxCell id="SrCjx3DrhkShmruOlfa0-9" value="Register" style="rounded=0;whiteSpace=wrap;html=1;fillColor=#ffe6cc;strokeColor=#d79b00;" vertex="1" parent="1">
          <mxGeometry x="280" y="230" width="90" height="30" as="geometry" />
        </mxCell>
        <mxCell id="SrCjx3DrhkShmruOlfa0-12" value="L1Cache" style="rounded=0;whiteSpace=wrap;html=1;fillColor=#ffe6cc;strokeColor=#d79b00;" vertex="1" parent="1">
          <mxGeometry x="264.5" y="270" width="121" height="30" as="geometry" />
        </mxCell>
        <mxCell id="SrCjx3DrhkShmruOlfa0-13" value="L2Cache" style="rounded=0;whiteSpace=wrap;html=1;fillColor=#ffe6cc;strokeColor=#d79b00;" vertex="1" parent="1">
          <mxGeometry x="244" y="310" width="170" height="30" as="geometry" />
        </mxCell>
        <mxCell id="SrCjx3DrhkShmruOlfa0-14" value="Register" style="rounded=0;whiteSpace=wrap;html=1;fillColor=#ffe6cc;strokeColor=#d79b00;" vertex="1" parent="1">
          <mxGeometry x="520" y="230" width="75" height="30" as="geometry" />
        </mxCell>
        <mxCell id="SrCjx3DrhkShmruOlfa0-15" value="L1Cache" style="rounded=0;whiteSpace=wrap;html=1;fillColor=#ffe6cc;strokeColor=#d79b00;" vertex="1" parent="1">
          <mxGeometry x="505" y="270" width="120" height="30" as="geometry" />
        </mxCell>
        <mxCell id="SrCjx3DrhkShmruOlfa0-16" value="L2Cache" style="rounded=0;whiteSpace=wrap;html=1;fillColor=#ffe6cc;strokeColor=#d79b00;" vertex="1" parent="1">
          <mxGeometry x="487.5" y="310" width="155" height="30" as="geometry" />
        </mxCell>
        <mxCell id="SrCjx3DrhkShmruOlfa0-17" value="Shared L3 Cache" style="rounded=0;whiteSpace=wrap;html=1;fillColor=#ffe6cc;strokeColor=#d79b00;" vertex="1" parent="1">
          <mxGeometry x="230" y="400" width="440" height="30" as="geometry" />
        </mxCell>
        <mxCell id="SrCjx3DrhkShmruOlfa0-18" value="" style="shape=flexArrow;endArrow=classic;startArrow=classic;html=1;rounded=0;entryX=0.518;entryY=0.997;entryDx=0;entryDy=0;entryPerimeter=0;exitX=0.518;exitY=0;exitDx=0;exitDy=0;exitPerimeter=0;fillColor=#f0a30a;strokeColor=#BD7000;" edge="1" parent="1" source="SrCjx3DrhkShmruOlfa0-2" target="SrCjx3DrhkShmruOlfa0-1">
          <mxGeometry width="100" height="100" relative="1" as="geometry">
            <mxPoint x="350" y="580" as="sourcePoint" />
            <mxPoint x="450" y="480" as="targetPoint" />
          </mxGeometry>
        </mxCell>
        <mxCell id="SrCjx3DrhkShmruOlfa0-19" value="Core1" style="text;html=1;align=center;verticalAlign=middle;whiteSpace=wrap;rounded=0;" vertex="1" parent="1">
          <mxGeometry x="290" y="120" width="60" height="30" as="geometry" />
        </mxCell>
        <mxCell id="SrCjx3DrhkShmruOlfa0-20" value="Core2" style="text;html=1;align=center;verticalAlign=middle;whiteSpace=wrap;rounded=0;" vertex="1" parent="1">
          <mxGeometry x="535" y="120" width="60" height="30" as="geometry" />
        </mxCell>
      </root>
    </mxGraphModel>
  </diagram>
</mxfile>
